# xmcd
#
# Track frame offsets:
#	150
#	1251
#	14674
#	29573
#	44178
#	58572
#	72196
#	88295
#	107588
#	123647
#	139714
#	155056
#	170890
#	184561
#	200015
#	216818
#	233257
#	248568
#	261470
#	283886
#	302057
#
# Disc length: 4243 seconds
#
# Revision: 0
# Processed by: cddbd v1.5.2PL0 Copyright (c) Steve Scherf et al.
# Submitted via: audiograbber 1.83.01
#
DISCID=3d109115
DTITLE=2007 A.H. Tour Norderney Vol.07  2007 - 2007 A.H. Tour Norderney Vol.07 
DTITLE=2007
DYEAR=2007
DGENRE=Pop
TTITLE0=Intro
TTITLE1=Markus Becker Feat. Mallorca Cowboys - Das Rote Pferd
TTITLE2=Peter Wackel feat. Chriss Tuxi - Joana
TTITLE3=Hot Banditoz - Que si, que no
TTITLE4=DJ Ötzi - Hintermoser Kathi A Dirndl Wie A Zelt
TTITLE5=Höhner - Wenn Nicht Jetzt Wann Dann
TTITLE6=Jörg Bausch - Wie Ein Wolf In Der Nacht
TTITLE7=Michael Wendler - Sie Liebt Den Dj 2007
TTITLE8=Nico Gemba - Der Letzte Fox
TTITLE9=Nic - Immer Noch 
TTITLE10=Helene Fischer - Mitten Im Paradies
TTITLE11=Mark Medlock and Dieter Bohlen - You Can Get It
TTITLE12=Kate Ryan - Voyage Voyage
TTITLE13=Basshunter - Boten Anna
TTITLE14=Scooter - The Question Is What Is The Question
TTITLE15=Cascada - Miracle
TTITLE16=Andreas Martin - Wir Sind Immer Noch Gut
TTITLE17=Siggi Rose - Juanita
TTITLE18=Malu - Santo Domingo
TTITLE19=U-Nique and Dj Müsli -  Norderney - Wir Sind Dabei
TTITLE20=Peter Sebastian - Junge Komm Bald Wieder
EXTD=
EXTT0=
EXTT1=
EXTT2=
EXTT3=
EXTT4=
EXTT5=
EXTT6=
EXTT7=
EXTT8=
EXTT9=
EXTT10=
EXTT11=
EXTT12=
EXTT13=
EXTT14=
EXTT15=
EXTT16=
EXTT17=
EXTT18=
EXTT19=
EXTT20=
PLAYORDER=
